<svg xmlns="http://www.w3.org/2000/svg" xmlns:xlink="http://www.w3.org/1999/xlink" width="129" height="23" viewBox="0 0 129 23">
    <defs>
        <path id="a" d="M0 23h129V0H0z"/>
    </defs>
    <g fill="none" fill-rule="evenodd">
        <path fill="#FFF" d="M46.442 2.98c1.754 1.328 2.831 3.107 3.257 5.387h-5.513c-.376-.777-.927-1.378-1.679-1.854-.752-.451-1.654-.677-2.706-.677-1.654 0-2.982.551-3.96 1.654-1.002 1.102-1.503 2.606-1.503 4.51 0 2.055.526 3.633 1.578 4.736 1.053 1.102 2.531 1.654 4.486 1.654 1.253 0 2.33-.351 3.258-1.028.927-.676 1.604-1.654 1.98-2.906h-6.616v-3.759H50v5.162a10.37 10.37 0 0 1-1.955 3.508c-.902 1.077-2.03 1.954-3.433 2.63C43.21 22.675 41.63 23 39.826 23c-2.18 0-4.085-.451-5.714-1.378-1.629-.927-2.882-2.23-3.784-3.884C29.451 16.034 29 14.13 29 11.975c0-2.13.451-4.034 1.328-5.713.877-1.679 2.13-2.957 3.76-3.884C35.715 1.451 37.594 1 39.75 1c2.706 0 4.936.651 6.69 1.98"/>
        <mask id="b" fill="#fff">
            <use xlink:href="#a"/>
        </mask>
        <path fill="#FFF" d="M52 23h5V0h-5zM70.874 10.805c-.624-.537-1.372-.83-2.295-.83-.947 0-1.745.269-2.369.83-.623.56-.973 1.366-1.072 2.439h6.634c0-1.073-.275-1.878-.898-2.44m5.985 4.61H65.088c.05 1.245.374 2.147.972 2.684.599.536 1.347.829 2.245.829.773 0 1.397-.195 1.92-.561.5-.366.848-.854.998-1.464h5.512c-.225 1.171-.699 2.22-1.472 3.147-.748.927-1.696 1.634-2.868 2.17-1.147.537-2.444.781-3.866.781-1.67 0-3.142-.341-4.414-1.024a7.252 7.252 0 0 1-3.018-2.952C60.374 17.732 60 16.22 60 14.512c0-1.732.35-3.244 1.072-4.536.724-1.269 1.721-2.269 3.018-2.952C65.387 6.341 66.858 6 68.53 6c1.67 0 3.167.341 4.439 1 1.272.683 2.27 1.61 2.968 2.83.698 1.219 1.047 2.609 1.047 4.194.05.44-.025.878-.125 1.39M85.014 11.537c-.64.707-.971 1.707-.971 2.975s.332 2.268.971 2.976c.64.707 1.492 1.073 2.557 1.073 1.042 0 1.894-.366 2.557-1.098.663-.731.995-1.707.995-2.95 0-1.245-.332-2.245-.995-2.952-.663-.732-1.515-1.073-2.557-1.073-1.065-.025-1.918.341-2.557 1.049m4.12-4.659a5.341 5.341 0 0 1 1.965 2.342v-3H96v16.585h-4.901v-3a5.085 5.085 0 0 1-1.965 2.341c-.876.586-1.942.854-3.173.854-1.326 0-2.51-.341-3.575-1.024-1.042-.683-1.87-1.659-2.487-2.952-.615-1.292-.899-2.804-.899-4.512 0-1.732.308-3.244.9-4.536.615-1.269 1.444-2.269 2.486-2.952C83.428 6.341 84.61 6 85.96 6c1.231 0 2.297.293 3.173.878M127.184 7.927c1.211 1.285 1.816 3.04 1.816 5.313V23h-5.22v-9.167c0-1.063-.302-1.903-.883-2.496-.58-.593-1.387-.89-2.37-.89-1.034 0-1.866.322-2.471.94-.606.642-.908 1.532-.908 2.668v8.92h-5.245v-9.142c0-1.063-.278-1.903-.858-2.496s-1.361-.89-2.37-.89c-1.034 0-1.866.322-2.497.94-.605.617-.933 1.507-.933 2.668v8.92H100V6.173h5.245v2.866a5.074 5.074 0 0 1 2.068-2.224c.933-.543 2.017-.815 3.278-.815 1.312 0 2.472.297 3.48.89 1.009.593 1.766 1.433 2.27 2.545a6.897 6.897 0 0 1 2.446-2.496 6.55 6.55 0 0 1 3.43-.939c2.093.025 3.757.642 4.967 1.927" mask="url(#b)"/>
        <path fill="#00D6FF" d="M22 11.5C22 17.851 17.075 23 11 23S0 17.851 0 11.5 4.925 0 11 0s11 5.149 11 11.5" mask="url(#b)"/>
        <path fill="#00D6FF" d="M7.417 16A.424.424 0 0 1 7 15.576V6.424c0-.164.093-.313.238-.383a.412.412 0 0 1 .442.054l5.166 4.276a.43.43 0 0 1 .06.596.412.412 0 0 1-.586.061L7.834 7.316v7.203l1.723-1.831a.412.412 0 0 1 .59-.014c.166.162.171.43.012.6l-2.44 2.595a.413.413 0 0 1-.302.131" mask="url(#b)"/>
        <path fill="#00D6FF" d="M14.583 16a.413.413 0 0 1-.258-.091l-5.166-4.146a.43.43 0 0 1-.07-.596.412.412 0 0 1 .586-.07l4.491 3.604V7.396l-1.709 1.612a.412.412 0 0 1-.589-.022.429.429 0 0 1 .022-.6l2.41-2.273a.412.412 0 0 1 .45-.078c.152.068.25.22.25.389v9.152c0 .162-.091.31-.235.382a.413.413 0 0 1-.182.042" mask="url(#b)"/>
        <path fill="#FFF" d="M7.417 16A.424.424 0 0 1 7 15.576V6.424c0-.164.093-.313.238-.383a.412.412 0 0 1 .442.054l5.166 4.276a.43.43 0 0 1 .06.596.412.412 0 0 1-.586.061L7.834 7.316v7.203l1.723-1.831a.412.412 0 0 1 .59-.014c.166.162.171.43.012.6l-2.44 2.595a.413.413 0 0 1-.302.131" mask="url(#b)"/>
        <path fill="#FFF" d="M14.583 16a.413.413 0 0 1-.258-.091l-5.166-4.146a.43.43 0 0 1-.07-.596.412.412 0 0 1 .586-.07l4.491 3.604V7.396l-1.709 1.612a.412.412 0 0 1-.589-.022.429.429 0 0 1 .022-.6l2.41-2.273a.412.412 0 0 1 .45-.078c.152.068.25.22.25.389v9.152c0 .162-.091.31-.235.382a.413.413 0 0 1-.182.042" mask="url(#b)"/>
    </g>
</svg>
